<?xml version="1.0" encoding="UTF-8"?>
<!DOCTYPE svg PUBLIC "-//W3C//DTD SVG 1.1//EN" "http://www.w3.org/Graphics/SVG/1.1/DTD/svg11.dtd">
<!-- Creator: CorelDRAW 2019 (64-Bit Evaluation Version) -->
<svg xmlns="http://www.w3.org/2000/svg" xml:space="preserve" width="33px" height="42px" version="1.1" style="shape-rendering:geometricPrecision; text-rendering:geometricPrecision; image-rendering:optimizeQuality; fill-rule:evenodd; clip-rule:evenodd"
viewBox="0 0 13.52 17.2"
 xmlns:xlink="http://www.w3.org/1999/xlink">
 <defs>
  <style type="text/css">
   <![CDATA[
    .fil0 {fill:white}
   ]]>
  </style>
 </defs>
 <g id="Layer_x0020_1">
  <metadata id="CorelCorpID_0Corel-Layer"/>
  <g id="_2349917657792">
   <path class="fil0" d="M5.54 7.02c-0.78,1.54 -5.97,8.88 -5.51,10.07 1.15,0.36 5.81,-8.48 6.73,-9.51 1.16,1.28 5.56,9.87 6.73,9.52 0.45,-1.16 -4.73,-8.59 -5.51,-10.08 0.78,-0.45 0.84,-0.38 0.7,-1.45l-3.84 -0.01c-0.14,1.06 -0.05,1.02 0.7,1.46z"/>
   <path class="fil0" d="M6.76 3.03c0.48,0 0.86,-0.39 0.86,-0.86 0,-0.48 -0.38,-0.87 -0.86,-0.87 -0.48,0 -0.86,0.39 -0.86,0.87 0,0.47 0.38,0.86 0.86,0.86zm-1.98 0.75l0.04 0.8 3.87 0.03 0.04 -0.83c0.71,-0.08 0.98,-0.08 1.02,-0.88 0.17,-3.01 -0.47,-2.08 -1.49,-2.35 -0.55,-0.15 -0.58,-0.55 -1.5,-0.55 -0.89,0 -0.83,0.3 -1.4,0.51 -1.12,0.42 -1.68,-0.8 -1.59,2.27 0.02,0.88 0.21,0.9 1.01,1z"/>
   <path class="fil0" d="M6.76 17.2c0.99,-0.51 0.95,-6.82 0,-7.71 -1.07,1.07 -0.81,7.3 0,7.71z"/>
  </g>
 </g>
</svg>
