<?xml version="1.0" encoding="UTF-8"?>
<!DOCTYPE svg PUBLIC "-//W3C//DTD SVG 1.1//EN" "http://www.w3.org/Graphics/SVG/1.1/DTD/svg11.dtd">
<!-- Creator: CorelDRAW X8 -->
<svg xmlns="http://www.w3.org/2000/svg" xml:space="preserve" width="109.381mm" height="109.374mm" version="1.1" style="shape-rendering:geometricPrecision; text-rendering:geometricPrecision; image-rendering:optimizeQuality; fill-rule:evenodd; clip-rule:evenodd"
viewBox="0 0 425 425"
 xmlns:xlink="http://www.w3.org/1999/xlink">
 <defs>
  <style type="text/css">
   <![CDATA[
    .fil0 {fill:#50B845}
    .fil1 {fill:white}
   ]]>
  </style>
 </defs>
 <g id="Capa_x0020_1">
  <metadata id="CorelCorpID_0Corel-Layer"/>
  <path class="fil0" d="M84 345c0,-3 14,-52 15,-57 5,-17 4,-8 -3,-26 -4,-8 -7,-17 -9,-27 -16,-78 40,-155 122,-161 46,-4 83,16 105,38 22,21 43,57 40,104 -2,43 -26,77 -48,96 -36,29 -87,42 -139,21 -17,-7 -6,-8 -26,-3 -6,2 -53,15 -57,15zm-84 -121c3,33 10,58 23,84 14,29 37,55 60,73 16,12 31,21 50,29 25,10 61,17 91,15 17,-2 30,-4 46,-8 36,-10 66,-28 92,-54 3,-2 4,-4 7,-6 2,-2 4,-5 6,-7 34,-40 53,-95 50,-149 -2,-31 -10,-60 -22,-84 -13,-24 -32,-50 -53,-67 -7,-6 -15,-11 -23,-17 -11,-7 -22,-12 -35,-18 -68,-28 -151,-16 -207,28 -16,12 -23,19 -35,32 -5,7 -12,16 -17,23 -6,11 -12,23 -18,35 -10,26 -17,59 -15,91z"/>
  <path class="fil0" d="M169 146c3,0 7,0 10,0 3,0 4,1 6,3 1,3 4,9 5,13 2,4 4,9 5,13 1,2 3,4 2,7 -2,4 -5,8 -8,11 -1,2 -3,3 -3,6 0,2 5,9 7,11 5,7 11,14 18,19 5,4 16,11 23,13 4,1 5,-1 6,-3l9 -10c4,-5 3,-7 17,0 4,2 9,4 13,6 7,4 9,4 9,9 0,4 -2,11 -4,14 -3,6 -13,13 -22,15 -13,1 -21,-2 -31,-6 -20,-7 -33,-16 -45,-28 -6,-6 -11,-12 -17,-20 -5,-7 -10,-13 -14,-22 -6,-15 -6,-30 4,-43 3,-4 6,-7 10,-8zm-53 167c6,-1 32,-8 41,-11 2,0 3,1 5,2 36,21 80,22 115,0 47,-28 68,-89 45,-141 -6,-14 -15,-26 -24,-35 -23,-21 -51,-34 -85,-32 -33,2 -59,17 -79,39 -17,20 -31,54 -25,90 2,16 8,30 16,43 3,5 2,3 1,10l-7 23c-1,4 -2,8 -3,12z"/>
  <path class="fil1" d="M116 313c1,-4 2,-8 3,-12l7 -23c1,-7 2,-5 -1,-10 -8,-13 -14,-27 -16,-43 -6,-36 8,-70 25,-90 20,-22 46,-37 79,-39 34,-2 62,11 85,32 9,9 18,21 24,35 23,52 2,113 -45,141 -35,22 -79,21 -115,0 -2,-1 -3,-2 -5,-2 -9,3 -35,10 -41,11zm-32 32c4,0 51,-13 57,-15 20,-5 9,-4 26,3 52,21 103,8 139,-21 22,-19 46,-53 48,-96 3,-47 -18,-83 -40,-104 -22,-22 -59,-42 -105,-38 -82,6 -138,83 -122,161 2,10 5,19 9,27 7,18 8,9 3,26 -1,5 -15,54 -15,57z"/>
  <path class="fil1" d="M169 146c-4,1 -7,4 -10,8 -10,13 -10,28 -4,43 4,9 9,15 14,22 6,8 11,14 17,20 12,12 25,21 45,28 10,4 18,7 31,6 9,-2 19,-9 22,-15 2,-3 4,-10 4,-14 0,-5 -2,-5 -9,-9 -4,-2 -9,-4 -13,-6 -14,-7 -13,-5 -17,0l-9 10c-1,2 -2,4 -6,3 -7,-2 -18,-9 -23,-13 -7,-5 -13,-12 -18,-19 -2,-2 -7,-9 -7,-11 0,-3 2,-4 3,-6 3,-3 6,-7 8,-11 1,-3 -1,-5 -2,-7 -1,-4 -3,-9 -5,-13 -1,-4 -4,-10 -5,-13 -2,-2 -3,-3 -6,-3 -3,0 -7,0 -10,0z"/>
 </g>
</svg>
